# Blender 3.6.1
# www.blender.org
mtllib chessboard.mtl
o chessboard
v 0.899512 0.080116 -0.885540
v 0.913485 0.094088 -0.913485
v 0.885540 0.080116 -0.899512
v 0.903605 0.089996 -0.899512
v 0.899512 0.088183 -0.899512
v 0.899512 0.089996 -0.903605
v 0.895420 0.080116 -0.895420
v 0.986028 -0.094088 -1.000000
v 1.000000 -0.094088 -0.986028
v 0.995907 -0.094088 -0.995907
v 0.885540 0.080116 0.899512
v 0.913485 0.094088 0.913485
v 0.899512 0.080116 0.885540
v 0.899512 0.089996 0.903605
v 0.899512 0.088183 0.899512
v 0.903605 0.089996 0.899512
v 0.895420 0.080116 0.895420
v 1.000000 -0.094088 0.986028
v 0.986028 -0.094088 1.000000
v 0.995907 -0.094088 0.995907
v -0.899512 0.080116 -0.885540
v -0.885540 0.080116 -0.899512
v -0.913485 0.094088 -0.913485
v -0.895420 0.080116 -0.895420
v -0.899512 0.088183 -0.899512
v -0.899512 0.089996 -0.903605
v -0.903605 0.089996 -0.899512
v -1.000000 -0.094088 -0.986028
v -0.986028 -0.094088 -1.000000
v -0.995907 -0.094088 -0.995907
v -0.885540 0.080116 0.899512
v -0.899512 0.080116 0.885540
v -0.913485 0.094088 0.913485
v -0.895420 0.080116 0.895420
v -0.899512 0.088183 0.899512
v -0.903605 0.089996 0.899512
v -0.899512 0.089996 0.903605
v -0.986028 -0.094088 1.000000
v -1.000000 -0.094088 0.986028
v -0.995907 -0.094088 0.995907
v 1.000000 0.080116 0.986028
v 0.986028 0.094088 0.986028
v 0.986028 0.080116 1.000000
v 0.995907 0.089996 0.986027
v 0.994094 0.088183 0.994094
v 0.986027 0.089996 0.995907
v 0.995907 0.080116 0.995907
v -1.000000 0.080116 0.986028
v -0.986028 0.080116 1.000000
v -0.986028 0.094088 0.986028
v -0.995907 0.080116 0.995907
v -0.994094 0.088183 0.994094
v -0.986027 0.089996 0.995907
v -0.995907 0.089996 0.986027
v 0.986028 0.080116 -1.000000
v 0.986028 0.094088 -0.986028
v 1.000000 0.080116 -0.986028
v 0.986027 0.089996 -0.995907
v 0.994094 0.088183 -0.994094
v 0.995907 0.089996 -0.986027
v 0.995907 0.080116 -0.995907
v -0.986028 0.080116 -1.000000
v -1.000000 0.080116 -0.986028
v -0.986028 0.094088 -0.986028
v -0.995907 0.080116 -0.995907
v -0.994094 0.088183 -0.994094
v -0.995907 0.089996 -0.986027
v -0.986027 0.089996 -0.995907
v 0.885540 0.080116 0.899512
v 0.899512 0.080116 0.885540
v 0.885540 0.066143 0.885540
v 0.895420 0.080116 0.895420
v 0.893607 0.072049 0.893607
v 0.895420 0.070236 0.885540
v 0.885540 0.070236 0.895420
v -0.885540 0.080116 0.899512
v -0.885540 0.066143 0.885540
v -0.899512 0.080116 0.885540
v -0.885540 0.070236 0.895420
v -0.893607 0.072049 0.893607
v -0.895420 0.070236 0.885540
v -0.895420 0.080116 0.895420
v 0.899512 0.080116 -0.885540
v 0.885540 0.080116 -0.899512
v 0.885540 0.066143 -0.885540
v 0.895420 0.080116 -0.895420
v 0.893607 0.072049 -0.893607
v 0.885540 0.070236 -0.895420
v 0.895420 0.070236 -0.885540
v -0.899512 0.080116 -0.885540
v -0.885540 0.066143 -0.885540
v -0.885540 0.080116 -0.899512
v -0.895420 0.070236 -0.885540
v -0.893607 0.072049 -0.893607
v -0.885540 0.070236 -0.895420
v -0.895420 0.080116 -0.895420
vn 0.1794 0.1794 0.9673
vn -0.1951 -0.0000 0.9808
vn 0.1951 -0.0000 0.9808
vn 0.8120 0.5683 -0.1329
vn 0.8816 0.2188 0.4182
vn 0.8785 0.2980 0.3734
vn 0.1794 0.9673 0.1794
vn -0.1794 0.9673 -0.1794
vn -0.1794 0.9673 0.1794
vn 0.0488 0.9976 -0.0488
vn -0.0488 0.9976 -0.0488
vn 0.9673 0.1794 -0.1794
vn 0.9808 -0.0000 0.1951
vn 0.9808 -0.0000 -0.1951
vn -0.2152 0.2508 -0.9438
vn 0.0775 0.1782 -0.9809
vn 0.0519 0.2429 -0.9687
vn 0.2152 0.2508 0.9438
vn -0.0775 0.1782 0.9809
vn -0.0519 0.2429 0.9687
vn -0.9673 0.1794 0.1794
vn -0.9808 -0.0000 -0.1951
vn -0.9808 -0.0000 0.1951
vn -0.1794 0.1794 -0.9673
vn 0.1951 -0.0000 -0.9808
vn -0.1951 -0.0000 -0.9808
vn -0.0488 0.9976 0.0488
vn 0.0488 0.9976 0.0488
vn 0.1794 0.9673 -0.1794
vn -0.8120 0.5683 0.1329
vn -0.4437 0.7786 0.4437
vn -0.3814 0.8347 0.3972
vn -0.1746 0.8969 0.4063
vn -0.4063 0.8969 0.1746
vn -0.4437 0.7786 -0.4437
vn -0.4148 0.8210 -0.3923
vn -0.4063 0.8969 -0.1746
vn -0.1746 0.8969 -0.4063
vn -0.8785 0.2980 -0.3734
vn 0.4437 0.7786 0.4437
vn 0.4063 0.8969 0.1746
vn 0.4148 0.8210 0.3923
vn 0.1746 0.8969 0.4063
vn 0.4437 0.7786 -0.4437
vn 0.1746 0.8969 -0.4063
vn 0.3814 0.8347 -0.3972
vn 0.4063 0.8969 -0.1746
vn 0.9673 0.1794 0.1794
vn 0.5773 0.5774 0.5773
vn 0.6993 0.1479 0.6993
vn 0.6993 0.6993 0.1479
vn 0.1479 0.6993 0.6993
vn -0.5773 0.5774 0.5773
vn -0.6993 0.6993 0.1479
vn -0.1794 0.1794 0.9673
vn -0.6993 0.1479 0.6993
vn -0.1479 0.6993 0.6993
vn 0.1794 0.1794 -0.9673
vn 0.5773 0.5774 -0.5773
vn 0.6993 0.1479 -0.6993
vn 0.1479 0.6993 -0.6993
vn 0.6993 0.6993 -0.1479
vn -0.5773 0.5774 -0.5773
vn -0.1479 0.6993 -0.6993
vn -0.9673 0.1794 -0.1794
vn -0.6993 0.1479 -0.6993
vn -0.6993 0.6993 -0.1479
vn -0.2477 0.1834 -0.9513
vn -0.5774 0.5773 -0.5774
vn -0.8816 0.2188 -0.4182
vn -0.3953 0.8450 -0.3600
vn 0.5774 0.5773 -0.5774
vn 0.3415 0.8655 -0.3664
vn 0.8367 0.5205 -0.1701
vn -0.8367 0.5205 0.1701
vn -0.5774 0.5773 0.5774
vn -0.3415 0.8655 0.3664
vn 0.5774 0.5773 0.5774
vn 0.3953 0.8450 0.3600
vn 0.2477 0.1834 0.9513
vn 0.7071 -0.0000 -0.7071
vn -0.7071 -0.0000 0.7071
vn 0.7071 -0.0000 0.7071
vn -0.7071 -0.0000 -0.7071
vt 0.006986 1.006855
vt 0.993014 1.093875
vt 0.006986 1.093875
vt 0.949756 0.942769
vt 0.949756 0.057230
vt 0.942770 0.057230
vt 0.057230 0.942770
vt 0.057230 0.057230
vt 0.956742 0.956742
vt 0.006986 0.993014
vt 0.043258 0.956742
vt -0.006855 0.006986
vt -0.093875 0.993014
vt -0.093875 0.006986
vt 0.057230 0.949756
vt 0.942770 0.949756
vt 0.942770 0.050244
vt 0.057230 0.050244
vt 0.057230 0.050244
vt 1.009120 0.992948
vt 1.095421 0.006884
vt 1.096140 0.992885
vt 0.993014 -0.006855
vt 0.006986 -0.093875
vt 0.993014 -0.093875
vt 0.043257 0.043258
vt 0.993014 0.006986
vt 0.956742 0.043258
vt 0.006986 0.006986
vt 0.993014 0.993014
vt 0.050244 0.057230
vt 0.050244 0.050244
vt 0.050244 0.050244
vt 0.050244 0.949756
vt 0.050244 0.949756
vt 0.050244 0.942770
vt 0.949756 0.050244
vt 0.949756 0.050244
vt 0.949756 0.050244
vt 0.949756 0.949756
vt 0.949756 0.949756
vt -0.006855 0.993014
vt 0.001026 0.999957
vt -0.006855 1.000000
vt -0.000000 0.993014
vt 0.006986 0.999875
vt 1.000714 0.998953
vt 1.002140 0.992953
vt 0.993014 1.006855
vt 1.000000 1.006855
vt 0.993014 1.000000
vt 0.006986 -0.006855
vt 0.000043 0.001026
vt 0.000000 -0.006855
vt 0.006986 -0.000000
vt 0.000125 0.006986
vt 0.999489 0.000031
vt 0.993014 0.000125
vt 1.008401 0.006947
vt 1.008396 -0.000039
vt 1.000000 0.006986
vt 0.057230 0.949756
vt 0.051228 0.948772
vt 0.057230 0.949756
vt 0.050244 0.942770
vt 0.948772 0.948771
vt 0.942770 0.942769
vt 0.942770 0.949756
vt 0.949756 0.942769
vt 0.050244 0.057230
vt 0.051228 0.051228
vt 0.050244 0.057230
vt 0.057230 0.050244
vt 0.948772 0.051228
vt 0.949756 0.057230
vt 0.942770 0.050244
vt -0.006855 0.000000
vt 0.000000 -0.093875
vt 1.000000 1.093875
vt 1.009125 0.999934
vt 1.096145 0.999871
vt 0.000000 1.006855
vt -0.093875 1.000000
vt 1.000000 -0.006855
vt 1.095416 -0.000102
vt 0.006986 0.999937
vt 0.993014 0.999937
vt 0.006986 0.993014
vt 0.000062 0.006986
vt 0.000062 0.993014
vt 0.993014 0.006986
vt 1.001070 0.992983
vt 1.000711 0.006969
vt 0.006986 0.006986
vt 0.993014 0.000062
vt 0.006986 0.000062
vt 0.050244 0.949756
vt 0.050244 0.050244
vt 0.949756 0.050244
vt 0.050244 0.050244
vt 0.057230 0.949756
vt 0.050244 0.057230
vt 0.949756 0.057230
vt 0.057230 0.050244
vt 0.050244 0.050244
vt 0.050244 0.949756
vt 0.949756 0.050244
vt 0.949756 0.949756
vt 0.000125 0.993014
vt 0.006986 1.000000
vt 0.993014 0.999875
vt 1.000000 0.993014
vt 0.006986 0.000125
vt 0.000000 0.006986
vt 1.001422 0.006952
vt 0.993014 0.000000
vt 0.057230 0.949756
vt 0.057230 0.050244
vt 0.050244 0.057230
vt 0.949756 0.057230
vt -0.093875 0.000000
vt 0.000000 1.093875
vt 1.000000 -0.093875
s 1
usemtl æè´¨
f 43/1/1 38/2/2 19/3/3
f 32/4/4 90/5/5 21/5/6
f 91/6/7 71/7/8 85/8/9
f 33/9/10 42/10/7 12/11/11
f 57/12/12 18/13/13 9/14/14
f 11/15/15 76/16/16 31/16/17
f 22/17/18 84/18/19 3/19/20
f 48/20/21 28/21/22 39/22/23
f 62/23/24 8/24/25 29/25/26
f 2/26/27 64/27/8 23/28/28
f 12/11/11 56/29/29 2/26/27
f 23/28/28 50/30/9 33/9/10
f 1/31/30 5/32/31 7/32/32
f 6/33/33 4/32/34 2/26/27
f 3/19/20 5/32/31 6/32/33
f 11/15/15 15/34/35 17/34/36
f 16/35/37 14/34/38 12/11/11
f 13/36/39 15/34/35 16/34/37
f 21/5/6 25/37/40 27/38/41
f 22/17/18 25/37/40 24/38/42
f 27/39/41 26/38/43 23/28/28
f 31/16/17 35/40/44 37/40/45
f 32/4/4 35/40/44 34/40/46
f 37/41/45 36/40/47 33/9/10
f 41/42/48 45/43/49 47/44/50
f 42/10/7 45/43/49 44/45/51
f 43/1/1 45/43/49 46/46/52
f 48/20/21 52/47/53 54/48/54
f 49/49/55 52/47/53 51/50/56
f 50/30/9 52/47/53 53/51/57
f 55/52/58 59/53/59 61/54/60
f 56/29/29 59/53/59 58/55/61
f 57/12/12 59/53/59 60/56/62
f 62/23/24 66/57/63 68/58/64
f 63/59/65 66/57/63 65/60/66
f 64/27/8 66/57/63 67/61/67
f 69/62/68 73/63/69 75/64/64
f 70/36/70 73/63/69 72/34/71
f 71/7/8 73/63/69 74/65/67
f 76/16/16 80/66/72 82/40/73
f 77/67/29 80/66/72 79/68/61
f 78/4/74 80/66/72 81/69/62
f 83/70/75 87/71/76 89/72/54
f 84/18/19 87/71/76 86/32/77
f 85/8/9 87/71/76 88/73/57
f 90/5/5 94/74/78 96/38/79
f 91/6/7 94/74/78 93/75/51
f 92/17/80 94/74/78 95/76/52
f 9/14/14 61/77/60 57/12/12
f 10/78/81 55/52/58 61/54/60
f 49/49/55 40/79/82 38/2/2
f 51/80/56 39/22/23 40/81/82
f 19/3/3 47/82/50 43/1/1
f 20/83/83 41/42/48 47/44/50
f 29/25/26 65/84/66 62/23/24
f 30/85/84 63/59/65 65/60/66
f 50/30/9 46/86/52 42/10/7
f 53/87/57 43/1/1 46/86/52
f 42/88/7 60/89/62 56/29/29
f 44/90/51 57/12/12 60/89/62
f 64/91/8 54/92/54 50/30/9
f 67/93/67 48/20/21 54/92/54
f 56/94/29 68/95/64 64/27/8
f 58/96/61 62/23/24 68/95/64
f 31/16/17 14/97/38 11/15/15
f 37/40/45 12/11/11 14/97/38
f 13/36/39 4/98/34 1/31/30
f 16/34/37 2/26/27 4/98/34
f 21/5/6 36/40/47 32/4/4
f 27/99/41 33/9/10 36/40/47
f 3/19/20 26/38/43 22/17/18
f 6/100/33 23/28/28 26/38/43
f 77/67/29 75/101/64 71/7/8
f 79/68/61 69/62/68 75/101/64
f 71/7/8 89/102/54 85/8/9
f 74/65/67 83/70/75 89/102/54
f 91/6/7 81/69/62 77/67/29
f 93/103/51 78/4/74 81/69/62
f 85/8/9 95/76/52 91/6/7
f 88/104/57 92/17/80 95/76/52
f 13/36/39 72/34/71 17/34/36
f 17/34/36 69/62/68 11/15/15
f 78/4/74 34/40/46 82/40/73
f 82/40/73 31/16/17 76/16/16
f 21/5/6 96/38/79 24/38/42
f 24/38/42 92/17/80 22/17/18
f 83/70/75 7/32/32 86/32/77
f 86/32/77 3/19/20 84/18/19
f 1/31/30 70/36/70 13/36/39
f 43/1/1 49/49/55 38/2/2
f 32/4/4 78/4/74 90/5/5
f 91/6/7 77/67/29 71/7/8
f 33/9/10 50/30/9 42/10/7
f 57/12/12 41/42/48 18/13/13
f 11/15/15 69/62/68 76/16/16
f 22/17/18 92/17/80 84/18/19
f 48/20/21 63/59/65 28/21/22
f 62/23/24 55/52/58 8/24/25
f 2/26/27 56/94/29 64/27/8
f 12/11/11 42/88/7 56/29/29
f 23/28/28 64/91/8 50/30/9
f 1/31/30 4/105/34 5/32/31
f 6/33/33 5/32/31 4/32/34
f 3/19/20 7/32/32 5/32/31
f 11/15/15 14/106/38 15/34/35
f 16/35/37 15/34/35 14/34/38
f 13/36/39 17/34/36 15/34/35
f 21/5/6 24/38/42 25/37/40
f 22/17/18 26/107/43 25/37/40
f 27/39/41 25/37/40 26/38/43
f 31/16/17 34/40/46 35/40/44
f 32/4/4 36/108/47 35/40/44
f 37/41/45 35/40/44 36/40/47
f 41/42/48 44/109/51 45/43/49
f 42/10/7 46/110/52 45/43/49
f 43/1/1 47/82/50 45/43/49
f 48/20/21 51/80/56 52/47/53
f 49/49/55 53/111/57 52/47/53
f 50/30/9 54/112/54 52/47/53
f 55/52/58 58/113/61 59/53/59
f 56/29/29 60/114/62 59/53/59
f 57/12/12 61/77/60 59/53/59
f 62/23/24 65/84/66 66/57/63
f 63/59/65 67/115/67 66/57/63
f 64/27/8 68/116/64 66/57/63
f 69/62/68 72/34/71 73/63/69
f 70/36/70 74/65/67 73/63/69
f 71/7/8 75/117/64 73/63/69
f 76/16/16 79/68/61 80/66/72
f 77/67/29 81/69/62 80/66/72
f 78/4/74 82/40/73 80/66/72
f 83/70/75 86/32/77 87/71/76
f 84/18/19 88/118/57 87/71/76
f 85/8/9 89/119/54 87/71/76
f 90/5/5 93/120/51 94/74/78
f 91/6/7 95/76/52 94/74/78
f 92/17/80 96/38/79 94/74/78
f 9/14/14 10/121/81 61/77/60
f 10/78/81 8/24/25 55/52/58
f 49/49/55 51/50/56 40/79/82
f 51/80/56 48/20/21 39/22/23
f 19/3/3 20/122/83 47/82/50
f 20/83/83 18/13/13 41/42/48
f 29/25/26 30/123/84 65/84/66
f 30/85/84 28/21/22 63/59/65
f 50/30/9 53/87/57 46/86/52
f 53/87/57 49/49/55 43/1/1
f 42/88/7 44/90/51 60/89/62
f 44/90/51 41/42/48 57/12/12
f 64/91/8 67/93/67 54/92/54
f 67/93/67 63/59/65 48/20/21
f 56/94/29 58/96/61 68/95/64
f 58/96/61 55/52/58 62/23/24
f 31/16/17 37/40/45 14/97/38
f 37/40/45 33/9/10 12/11/11
f 13/36/39 16/34/37 4/98/34
f 16/34/37 12/11/11 2/26/27
f 21/5/6 27/99/41 36/40/47
f 27/99/41 23/28/28 33/9/10
f 3/19/20 6/100/33 26/38/43
f 6/100/33 2/26/27 23/28/28
f 77/67/29 79/68/61 75/101/64
f 79/68/61 76/16/16 69/62/68
f 71/7/8 74/65/67 89/102/54
f 74/65/67 70/36/70 83/70/75
f 91/6/7 93/103/51 81/69/62
f 93/103/51 90/5/5 78/4/74
f 85/8/9 88/104/57 95/76/52
f 88/104/57 84/18/19 92/17/80
f 13/36/39 70/36/70 72/34/71
f 17/34/36 72/34/71 69/62/68
f 78/4/74 32/4/4 34/40/46
f 82/40/73 34/40/46 31/16/17
f 21/5/6 90/5/5 96/38/79
f 24/38/42 96/38/79 92/17/80
f 83/70/75 1/31/30 7/32/32
f 86/32/77 7/32/32 3/19/20
f 1/31/30 83/70/75 70/36/70
o tianyuan
v 0.000000 0.066143 0.000000
o zuoxia
v -0.700000 0.066143 0.700000
